<mxfile host="app.diagrams.net" agent="Mozilla/5.0 (Windows NT 10.0; Win64; x64) AppleWebKit/537.36 (KHTML, like Gecko) Chrome/130.0.0.0 YaBrowser/24.12.0.0 Safari/537.36" version="25.0.3">
  <diagram name="Страница — 1" id="xpFgrq0fDw5dhkL6XbUy">
    <mxGraphModel dx="1243" dy="590" grid="1" gridSize="10" guides="1" tooltips="1" connect="1" arrows="1" fold="1" page="1" pageScale="1" pageWidth="827" pageHeight="1169" math="0" shadow="0">
      <root>
        <mxCell id="0" />
        <mxCell id="1" parent="0" />
        <mxCell id="ZmTwXXNb0WhWQu9tq_HX-7" value="" style="rounded=1;whiteSpace=wrap;html=1;" vertex="1" parent="1">
          <mxGeometry x="341.25" y="462" width="117.5" height="238" as="geometry" />
        </mxCell>
        <mxCell id="ZmTwXXNb0WhWQu9tq_HX-1" value="Площадь" style="ellipse;whiteSpace=wrap;html=1;" vertex="1" parent="1">
          <mxGeometry x="350" y="470" width="100" height="30" as="geometry" />
        </mxCell>
        <mxCell id="ZmTwXXNb0WhWQu9tq_HX-2" value="Статус" style="ellipse;whiteSpace=wrap;html=1;" vertex="1" parent="1">
          <mxGeometry x="350" y="510" width="100" height="30" as="geometry" />
        </mxCell>
        <mxCell id="ZmTwXXNb0WhWQu9tq_HX-3" value="Описание" style="ellipse;whiteSpace=wrap;html=1;" vertex="1" parent="1">
          <mxGeometry x="350" y="550" width="100" height="30" as="geometry" />
        </mxCell>
        <mxCell id="ZmTwXXNb0WhWQu9tq_HX-4" value="Адрес" style="ellipse;whiteSpace=wrap;html=1;" vertex="1" parent="1">
          <mxGeometry x="350" y="585" width="100" height="30" as="geometry" />
        </mxCell>
        <mxCell id="ZmTwXXNb0WhWQu9tq_HX-5" value="Арендодатель" style="ellipse;whiteSpace=wrap;html=1;" vertex="1" parent="1">
          <mxGeometry x="350" y="620" width="100" height="30" as="geometry" />
        </mxCell>
        <mxCell id="ZmTwXXNb0WhWQu9tq_HX-6" value="СТР_П" style="ellipse;whiteSpace=wrap;html=1;" vertex="1" parent="1">
          <mxGeometry x="350" y="660" width="100" height="30" as="geometry" />
        </mxCell>
        <mxCell id="ZmTwXXNb0WhWQu9tq_HX-8" value="ФИО" style="ellipse;whiteSpace=wrap;html=1;" vertex="1" parent="1">
          <mxGeometry x="540" y="525" width="80" height="25" as="geometry" />
        </mxCell>
        <mxCell id="ZmTwXXNb0WhWQu9tq_HX-9" value="Дата_Регистрации" style="ellipse;whiteSpace=wrap;html=1;" vertex="1" parent="1">
          <mxGeometry x="540" y="552.5" width="120" height="25" as="geometry" />
        </mxCell>
        <mxCell id="ZmTwXXNb0WhWQu9tq_HX-10" value="Почта" style="ellipse;whiteSpace=wrap;html=1;" vertex="1" parent="1">
          <mxGeometry x="540" y="580" width="90" height="25" as="geometry" />
        </mxCell>
        <mxCell id="ZmTwXXNb0WhWQu9tq_HX-11" value="Телефон" style="ellipse;whiteSpace=wrap;html=1;" vertex="1" parent="1">
          <mxGeometry x="540" y="615" width="90" height="20" as="geometry" />
        </mxCell>
        <mxCell id="ZmTwXXNb0WhWQu9tq_HX-13" value="" style="endArrow=classic;html=1;rounded=0;entryX=0;entryY=0.5;entryDx=0;entryDy=0;exitX=1;exitY=0;exitDx=0;exitDy=0;" edge="1" parent="1" source="ZmTwXXNb0WhWQu9tq_HX-5" target="ZmTwXXNb0WhWQu9tq_HX-8">
          <mxGeometry width="50" height="50" relative="1" as="geometry">
            <mxPoint x="480" y="590" as="sourcePoint" />
            <mxPoint x="530" y="540" as="targetPoint" />
          </mxGeometry>
        </mxCell>
        <mxCell id="ZmTwXXNb0WhWQu9tq_HX-14" value="" style="endArrow=classic;html=1;rounded=0;entryX=0;entryY=0.5;entryDx=0;entryDy=0;exitX=0.922;exitY=0.245;exitDx=0;exitDy=0;exitPerimeter=0;" edge="1" parent="1" source="ZmTwXXNb0WhWQu9tq_HX-5" target="ZmTwXXNb0WhWQu9tq_HX-9">
          <mxGeometry width="50" height="50" relative="1" as="geometry">
            <mxPoint x="450" y="630" as="sourcePoint" />
            <mxPoint x="550" y="548" as="targetPoint" />
          </mxGeometry>
        </mxCell>
        <mxCell id="ZmTwXXNb0WhWQu9tq_HX-15" value="" style="endArrow=classic;html=1;rounded=0;entryX=0;entryY=0.5;entryDx=0;entryDy=0;exitX=1;exitY=0.5;exitDx=0;exitDy=0;" edge="1" parent="1" source="ZmTwXXNb0WhWQu9tq_HX-5" target="ZmTwXXNb0WhWQu9tq_HX-10">
          <mxGeometry width="50" height="50" relative="1" as="geometry">
            <mxPoint x="390" y="650" as="sourcePoint" />
            <mxPoint x="440" y="600" as="targetPoint" />
          </mxGeometry>
        </mxCell>
        <mxCell id="ZmTwXXNb0WhWQu9tq_HX-16" value="" style="endArrow=classic;html=1;rounded=0;entryX=0;entryY=0.5;entryDx=0;entryDy=0;exitX=0.976;exitY=0.597;exitDx=0;exitDy=0;exitPerimeter=0;" edge="1" parent="1" source="ZmTwXXNb0WhWQu9tq_HX-5" target="ZmTwXXNb0WhWQu9tq_HX-11">
          <mxGeometry width="50" height="50" relative="1" as="geometry">
            <mxPoint x="390" y="650" as="sourcePoint" />
            <mxPoint x="440" y="600" as="targetPoint" />
          </mxGeometry>
        </mxCell>
        <mxCell id="ZmTwXXNb0WhWQu9tq_HX-18" value="Цена" style="ellipse;whiteSpace=wrap;html=1;" vertex="1" parent="1">
          <mxGeometry x="560" y="670" width="80" height="20" as="geometry" />
        </mxCell>
        <mxCell id="ZmTwXXNb0WhWQu9tq_HX-21" value="Кад.Номер" style="ellipse;whiteSpace=wrap;html=1;" vertex="1" parent="1">
          <mxGeometry x="560" y="700" width="80" height="20" as="geometry" />
        </mxCell>
        <mxCell id="ZmTwXXNb0WhWQu9tq_HX-22" value="Прейскурант" style="ellipse;whiteSpace=wrap;html=1;" vertex="1" parent="1">
          <mxGeometry x="560" y="730" width="80" height="20" as="geometry" />
        </mxCell>
        <mxCell id="ZmTwXXNb0WhWQu9tq_HX-23" value="" style="endArrow=classic;html=1;rounded=0;entryX=0;entryY=0.5;entryDx=0;entryDy=0;exitX=1;exitY=0.5;exitDx=0;exitDy=0;" edge="1" parent="1" source="ZmTwXXNb0WhWQu9tq_HX-6" target="ZmTwXXNb0WhWQu9tq_HX-18">
          <mxGeometry width="50" height="50" relative="1" as="geometry">
            <mxPoint x="410" y="650" as="sourcePoint" />
            <mxPoint x="460" y="600" as="targetPoint" />
          </mxGeometry>
        </mxCell>
        <mxCell id="ZmTwXXNb0WhWQu9tq_HX-24" value="" style="endArrow=classic;html=1;rounded=0;entryX=0;entryY=0.5;entryDx=0;entryDy=0;exitX=0.996;exitY=0.608;exitDx=0;exitDy=0;exitPerimeter=0;" edge="1" parent="1" source="ZmTwXXNb0WhWQu9tq_HX-6" target="ZmTwXXNb0WhWQu9tq_HX-21">
          <mxGeometry width="50" height="50" relative="1" as="geometry">
            <mxPoint x="440" y="740" as="sourcePoint" />
            <mxPoint x="490" y="690" as="targetPoint" />
          </mxGeometry>
        </mxCell>
        <mxCell id="ZmTwXXNb0WhWQu9tq_HX-25" value="" style="endArrow=classic;html=1;rounded=0;entryX=-0.032;entryY=0.484;entryDx=0;entryDy=0;entryPerimeter=0;exitX=0.967;exitY=0.715;exitDx=0;exitDy=0;exitPerimeter=0;" edge="1" parent="1" source="ZmTwXXNb0WhWQu9tq_HX-6" target="ZmTwXXNb0WhWQu9tq_HX-22">
          <mxGeometry width="50" height="50" relative="1" as="geometry">
            <mxPoint x="414" y="750" as="sourcePoint" />
            <mxPoint x="464" y="700" as="targetPoint" />
          </mxGeometry>
        </mxCell>
        <mxCell id="ZmTwXXNb0WhWQu9tq_HX-26" value="Имя" style="ellipse;whiteSpace=wrap;html=1;" vertex="1" parent="1">
          <mxGeometry x="680" y="680" width="80" height="20" as="geometry" />
        </mxCell>
        <mxCell id="ZmTwXXNb0WhWQu9tq_HX-27" value="Дата начала" style="ellipse;whiteSpace=wrap;html=1;" vertex="1" parent="1">
          <mxGeometry x="680" y="710" width="80" height="20" as="geometry" />
        </mxCell>
        <mxCell id="ZmTwXXNb0WhWQu9tq_HX-28" value="Дата конец" style="ellipse;whiteSpace=wrap;html=1;" vertex="1" parent="1">
          <mxGeometry x="680" y="740" width="80" height="20" as="geometry" />
        </mxCell>
        <mxCell id="ZmTwXXNb0WhWQu9tq_HX-29" value="" style="endArrow=classic;html=1;rounded=0;entryX=0;entryY=0.5;entryDx=0;entryDy=0;exitX=1;exitY=0.5;exitDx=0;exitDy=0;" edge="1" parent="1" source="ZmTwXXNb0WhWQu9tq_HX-22" target="ZmTwXXNb0WhWQu9tq_HX-26">
          <mxGeometry width="50" height="50" relative="1" as="geometry">
            <mxPoint x="560" y="650" as="sourcePoint" />
            <mxPoint x="610" y="600" as="targetPoint" />
          </mxGeometry>
        </mxCell>
        <mxCell id="ZmTwXXNb0WhWQu9tq_HX-30" value="" style="endArrow=classic;html=1;rounded=0;entryX=0;entryY=0.5;entryDx=0;entryDy=0;" edge="1" parent="1" target="ZmTwXXNb0WhWQu9tq_HX-27">
          <mxGeometry width="50" height="50" relative="1" as="geometry">
            <mxPoint x="640" y="740" as="sourcePoint" />
            <mxPoint x="610" y="600" as="targetPoint" />
          </mxGeometry>
        </mxCell>
        <mxCell id="ZmTwXXNb0WhWQu9tq_HX-31" value="" style="endArrow=classic;html=1;rounded=0;entryX=0;entryY=0.5;entryDx=0;entryDy=0;exitX=1;exitY=0.5;exitDx=0;exitDy=0;" edge="1" parent="1" source="ZmTwXXNb0WhWQu9tq_HX-22" target="ZmTwXXNb0WhWQu9tq_HX-28">
          <mxGeometry width="50" height="50" relative="1" as="geometry">
            <mxPoint x="560" y="650" as="sourcePoint" />
            <mxPoint x="610" y="600" as="targetPoint" />
          </mxGeometry>
        </mxCell>
        <mxCell id="ZmTwXXNb0WhWQu9tq_HX-32" value="Дата" style="ellipse;whiteSpace=wrap;html=1;" vertex="1" parent="1">
          <mxGeometry x="414" y="740" width="70" height="20" as="geometry" />
        </mxCell>
        <mxCell id="ZmTwXXNb0WhWQu9tq_HX-34" value="Способ оплаты" style="ellipse;whiteSpace=wrap;html=1;" vertex="1" parent="1">
          <mxGeometry x="400" y="770" width="84" height="30" as="geometry" />
        </mxCell>
        <mxCell id="ZmTwXXNb0WhWQu9tq_HX-35" value="Статус оплаты" style="ellipse;whiteSpace=wrap;html=1;" vertex="1" parent="1">
          <mxGeometry x="400" y="810" width="84" height="30" as="geometry" />
        </mxCell>
        <mxCell id="ZmTwXXNb0WhWQu9tq_HX-36" value="Номер договора" style="ellipse;whiteSpace=wrap;html=1;" vertex="1" parent="1">
          <mxGeometry x="400" y="850" width="84" height="30" as="geometry" />
        </mxCell>
        <mxCell id="ZmTwXXNb0WhWQu9tq_HX-37" value="" style="endArrow=classic;html=1;rounded=0;entryX=1;entryY=0.5;entryDx=0;entryDy=0;exitX=0.04;exitY=0.704;exitDx=0;exitDy=0;exitPerimeter=0;" edge="1" parent="1" source="ZmTwXXNb0WhWQu9tq_HX-21" target="ZmTwXXNb0WhWQu9tq_HX-32">
          <mxGeometry width="50" height="50" relative="1" as="geometry">
            <mxPoint x="350" y="780" as="sourcePoint" />
            <mxPoint x="400" y="730" as="targetPoint" />
          </mxGeometry>
        </mxCell>
        <mxCell id="ZmTwXXNb0WhWQu9tq_HX-39" value="" style="endArrow=classic;html=1;rounded=0;entryX=1;entryY=0.5;entryDx=0;entryDy=0;exitX=0.04;exitY=0.72;exitDx=0;exitDy=0;exitPerimeter=0;" edge="1" parent="1" source="ZmTwXXNb0WhWQu9tq_HX-21" target="ZmTwXXNb0WhWQu9tq_HX-34">
          <mxGeometry width="50" height="50" relative="1" as="geometry">
            <mxPoint x="390" y="810" as="sourcePoint" />
            <mxPoint x="440" y="760" as="targetPoint" />
          </mxGeometry>
        </mxCell>
        <mxCell id="ZmTwXXNb0WhWQu9tq_HX-40" value="" style="endArrow=classic;html=1;rounded=0;entryX=1;entryY=0.5;entryDx=0;entryDy=0;exitX=0.052;exitY=0.72;exitDx=0;exitDy=0;exitPerimeter=0;" edge="1" parent="1" source="ZmTwXXNb0WhWQu9tq_HX-21" target="ZmTwXXNb0WhWQu9tq_HX-35">
          <mxGeometry width="50" height="50" relative="1" as="geometry">
            <mxPoint x="560" y="710" as="sourcePoint" />
            <mxPoint x="440" y="760" as="targetPoint" />
          </mxGeometry>
        </mxCell>
        <mxCell id="ZmTwXXNb0WhWQu9tq_HX-41" value="" style="endArrow=classic;html=1;rounded=0;entryX=1;entryY=0.5;entryDx=0;entryDy=0;exitX=0.04;exitY=0.752;exitDx=0;exitDy=0;exitPerimeter=0;" edge="1" parent="1" source="ZmTwXXNb0WhWQu9tq_HX-21" target="ZmTwXXNb0WhWQu9tq_HX-36">
          <mxGeometry width="50" height="50" relative="1" as="geometry">
            <mxPoint x="390" y="810" as="sourcePoint" />
            <mxPoint x="440" y="760" as="targetPoint" />
          </mxGeometry>
        </mxCell>
        <mxCell id="ZmTwXXNb0WhWQu9tq_HX-42" value="Дата_начала" style="ellipse;whiteSpace=wrap;html=1;" vertex="1" parent="1">
          <mxGeometry x="250" y="790" width="80" height="30" as="geometry" />
        </mxCell>
        <mxCell id="ZmTwXXNb0WhWQu9tq_HX-43" value="Дата_конец" style="ellipse;whiteSpace=wrap;html=1;" vertex="1" parent="1">
          <mxGeometry x="250" y="830" width="80" height="30" as="geometry" />
        </mxCell>
        <mxCell id="ZmTwXXNb0WhWQu9tq_HX-44" value="Сумма&amp;nbsp;" style="ellipse;whiteSpace=wrap;html=1;" vertex="1" parent="1">
          <mxGeometry x="250" y="870" width="80" height="30" as="geometry" />
        </mxCell>
        <mxCell id="ZmTwXXNb0WhWQu9tq_HX-45" value="Арендатор" style="ellipse;whiteSpace=wrap;html=1;" vertex="1" parent="1">
          <mxGeometry x="250" y="910" width="80" height="30" as="geometry" />
        </mxCell>
        <mxCell id="ZmTwXXNb0WhWQu9tq_HX-46" value="" style="endArrow=classic;html=1;rounded=0;entryX=1;entryY=0.5;entryDx=0;entryDy=0;exitX=0;exitY=0.5;exitDx=0;exitDy=0;" edge="1" parent="1" source="ZmTwXXNb0WhWQu9tq_HX-36" target="ZmTwXXNb0WhWQu9tq_HX-42">
          <mxGeometry width="50" height="50" relative="1" as="geometry">
            <mxPoint x="390" y="890" as="sourcePoint" />
            <mxPoint x="440" y="840" as="targetPoint" />
          </mxGeometry>
        </mxCell>
        <mxCell id="ZmTwXXNb0WhWQu9tq_HX-47" value="" style="endArrow=classic;html=1;rounded=0;entryX=1;entryY=0.5;entryDx=0;entryDy=0;exitX=0;exitY=0.5;exitDx=0;exitDy=0;" edge="1" parent="1" source="ZmTwXXNb0WhWQu9tq_HX-36" target="ZmTwXXNb0WhWQu9tq_HX-43">
          <mxGeometry width="50" height="50" relative="1" as="geometry">
            <mxPoint x="390" y="890" as="sourcePoint" />
            <mxPoint x="440" y="840" as="targetPoint" />
          </mxGeometry>
        </mxCell>
        <mxCell id="ZmTwXXNb0WhWQu9tq_HX-48" value="" style="endArrow=classic;html=1;rounded=0;entryX=1;entryY=0.5;entryDx=0;entryDy=0;exitX=0;exitY=0.5;exitDx=0;exitDy=0;" edge="1" parent="1" source="ZmTwXXNb0WhWQu9tq_HX-36" target="ZmTwXXNb0WhWQu9tq_HX-44">
          <mxGeometry width="50" height="50" relative="1" as="geometry">
            <mxPoint x="390" y="890" as="sourcePoint" />
            <mxPoint x="440" y="840" as="targetPoint" />
          </mxGeometry>
        </mxCell>
        <mxCell id="ZmTwXXNb0WhWQu9tq_HX-49" value="" style="endArrow=classic;html=1;rounded=0;entryX=1;entryY=0.5;entryDx=0;entryDy=0;exitX=0;exitY=0.5;exitDx=0;exitDy=0;" edge="1" parent="1" source="ZmTwXXNb0WhWQu9tq_HX-36" target="ZmTwXXNb0WhWQu9tq_HX-45">
          <mxGeometry width="50" height="50" relative="1" as="geometry">
            <mxPoint x="390" y="890" as="sourcePoint" />
            <mxPoint x="440" y="840" as="targetPoint" />
          </mxGeometry>
        </mxCell>
        <mxCell id="ZmTwXXNb0WhWQu9tq_HX-50" value="ФИО" style="ellipse;whiteSpace=wrap;html=1;" vertex="1" parent="1">
          <mxGeometry x="150" y="640" width="80" height="25" as="geometry" />
        </mxCell>
        <mxCell id="ZmTwXXNb0WhWQu9tq_HX-51" value="Дата_Регистрации" style="ellipse;whiteSpace=wrap;html=1;" vertex="1" parent="1">
          <mxGeometry x="150" y="667.5" width="120" height="25" as="geometry" />
        </mxCell>
        <mxCell id="ZmTwXXNb0WhWQu9tq_HX-52" value="Почта" style="ellipse;whiteSpace=wrap;html=1;" vertex="1" parent="1">
          <mxGeometry x="150" y="695" width="90" height="25" as="geometry" />
        </mxCell>
        <mxCell id="ZmTwXXNb0WhWQu9tq_HX-53" value="Телефон" style="ellipse;whiteSpace=wrap;html=1;" vertex="1" parent="1">
          <mxGeometry x="150" y="730" width="90" height="20" as="geometry" />
        </mxCell>
        <mxCell id="ZmTwXXNb0WhWQu9tq_HX-54" value="" style="endArrow=classic;html=1;rounded=0;entryX=0.25;entryY=1;entryDx=0;entryDy=0;exitX=0;exitY=0.5;exitDx=0;exitDy=0;" edge="1" parent="1" source="ZmTwXXNb0WhWQu9tq_HX-36" target="ZmTwXXNb0WhWQu9tq_HX-7">
          <mxGeometry width="50" height="50" relative="1" as="geometry">
            <mxPoint x="390" y="770" as="sourcePoint" />
            <mxPoint x="440" y="720" as="targetPoint" />
          </mxGeometry>
        </mxCell>
        <mxCell id="ZmTwXXNb0WhWQu9tq_HX-55" value="" style="endArrow=classic;html=1;rounded=0;entryX=0;entryY=0.5;entryDx=0;entryDy=0;exitX=0;exitY=0.5;exitDx=0;exitDy=0;edgeStyle=orthogonalEdgeStyle;curved=1;" edge="1" parent="1" source="ZmTwXXNb0WhWQu9tq_HX-45" target="ZmTwXXNb0WhWQu9tq_HX-53">
          <mxGeometry width="50" height="50" relative="1" as="geometry">
            <mxPoint x="70" y="900" as="sourcePoint" />
            <mxPoint x="180" y="750" as="targetPoint" />
            <Array as="points">
              <mxPoint x="250" y="920" />
              <mxPoint x="130" y="920" />
              <mxPoint x="130" y="740" />
            </Array>
          </mxGeometry>
        </mxCell>
        <mxCell id="ZmTwXXNb0WhWQu9tq_HX-57" value="" style="endArrow=classic;html=1;rounded=0;entryX=0;entryY=0.5;entryDx=0;entryDy=0;exitX=0;exitY=0.5;exitDx=0;exitDy=0;edgeStyle=orthogonalEdgeStyle;curved=1;" edge="1" parent="1" source="ZmTwXXNb0WhWQu9tq_HX-45" target="ZmTwXXNb0WhWQu9tq_HX-52">
          <mxGeometry width="50" height="50" relative="1" as="geometry">
            <mxPoint x="390" y="850" as="sourcePoint" />
            <mxPoint x="440" y="800" as="targetPoint" />
            <Array as="points">
              <mxPoint x="250" y="920" />
              <mxPoint x="120" y="920" />
              <mxPoint x="120" y="708" />
            </Array>
          </mxGeometry>
        </mxCell>
        <mxCell id="ZmTwXXNb0WhWQu9tq_HX-58" value="" style="endArrow=classic;html=1;rounded=0;entryX=0;entryY=0.5;entryDx=0;entryDy=0;exitX=0;exitY=0.5;exitDx=0;exitDy=0;edgeStyle=orthogonalEdgeStyle;curved=1;" edge="1" parent="1" source="ZmTwXXNb0WhWQu9tq_HX-45" target="ZmTwXXNb0WhWQu9tq_HX-51">
          <mxGeometry width="50" height="50" relative="1" as="geometry">
            <mxPoint x="390" y="850" as="sourcePoint" />
            <mxPoint x="440" y="800" as="targetPoint" />
            <Array as="points">
              <mxPoint x="250" y="920" />
              <mxPoint x="120" y="920" />
              <mxPoint x="120" y="680" />
            </Array>
          </mxGeometry>
        </mxCell>
        <mxCell id="ZmTwXXNb0WhWQu9tq_HX-59" value="" style="endArrow=classic;html=1;rounded=0;entryX=0;entryY=0.5;entryDx=0;entryDy=0;exitX=0;exitY=0.5;exitDx=0;exitDy=0;edgeStyle=orthogonalEdgeStyle;curved=1;" edge="1" parent="1" source="ZmTwXXNb0WhWQu9tq_HX-45" target="ZmTwXXNb0WhWQu9tq_HX-50">
          <mxGeometry width="50" height="50" relative="1" as="geometry">
            <mxPoint x="390" y="850" as="sourcePoint" />
            <mxPoint x="440" y="800" as="targetPoint" />
            <Array as="points">
              <mxPoint x="250" y="920" />
              <mxPoint x="120" y="920" />
              <mxPoint x="120" y="653" />
            </Array>
          </mxGeometry>
        </mxCell>
      </root>
    </mxGraphModel>
  </diagram>
</mxfile>
